<?xml version="1.0" encoding="utf-8"?>
<!-- Generator: Adobe Illustrator 18.1.1, SVG Export Plug-In . SVG Version: 6.00 Build 0)  -->
<svg version="1.1" id="圖層_1" xmlns="http://www.w3.org/2000/svg" xmlns:xlink="http://www.w3.org/1999/xlink" x="0px" y="0px"
	 viewBox="-3178.6 -1006.2 7628 3212.4" enable-background="new -3178.6 -1006.2 7628 3212.4" xml:space="preserve">
<path fill="#CF000F" d="M4381.4,1582.3c-41.7,41.7-91.2,62.2-149.9,62.2c-58.7,0-108.2-20.5-149.9-62.2
	c-41.7-41.7-62.2-91.2-62.2-149.9c0-58.7,19.8-108.2,59.4-149.9c41.7-41.7,92.7-62.2,152.8-62.2c58.7,0,108.2,20.5,149.9,62.2
	c41.7,41.7,62.2,91.2,62.2,149.9C4443.6,1491.1,4423.1,1540.6,4381.4,1582.3z"/>
<g>
	<path fill="#FFFFFF" d="M-3134,1602.9c0-657.1,0-1297.1,0-1936.5c0-32.5,0-64.4,0-91.9c9.9-9.2,14.9-17,19.8-17
		c318.3,0,640.1-30.4,953.4,7.8c520.5,64.4,859.3,532.6,824.7,1080c-31.1,493-345.1,862.9-815.5,946.3
		c-113.9,20.5-233.4,9.9-350.1,10.6C-2708.3,1603.6-2915.5,1602.9-3134,1602.9z M-2776.2,1263.4c205.1,0,402.4,21.2,593.4-5.7
		c246.1-34.7,403.9-202.3,472.5-437.8c79.2-270.9,50.9-531.9-151.4-744.8C-1930.3,3-2027.2-71.3-2119.8-85.4
		c-214.3-32.5-435-29-657.1-41C-2776.2,352.4-2776.2,805.1-2776.2,1263.4z"/>
	<path fill="#FFFFFF" d="M1790,1599.3c-4.2-48.8-8.5-93.4-14.1-157c-183.9,188.1-402.4,233.4-639.4,189.5
		c-190.3-35.4-337.4-145-449.8-300.6C461,1018.6,511.2,558.9,797,282.4c208.6-202.3,657.1-294.9,981,13.4c5-53.8,9.2-99,14.1-151.4
		c107.5,0,212.2,0,323.9,0c0,486.6,0,968.3,0,1455.6C2005.7,1599.3,1901,1599.3,1790,1599.3z M1326.7,1326.3
		c275.1,0.7,457.6-185.3,459.7-467.5c2.1-253.9-191-446.3-449.8-447.7c-261-1.4-453.4,191.7-454.1,454.1
		C882.5,1136.8,1064.3,1326.3,1326.7,1326.3z"/>
	<path fill="#FFFFFF" d="M-788,1012.3c55.2,234.8,285,380.5,523.4,326.1c95.5-21.9,179.6-91.9,270.9-135.8c24-12,60.8-21.9,81.3-12
		c72.8,35.4,140.7,79.9,216.4,124.5c-12.7,22.6-20.5,43.9-33.2,59.4c-219.3,263.1-507.8,309.1-821.1,245.4
		c-288.6-58.7-478.8-239.1-560.9-522c-95.5-329.6,21.2-674,281.5-860.7C-575.8,54.6-199.6,41.2,49.4,215.9
		c243.3,170.5,344.4,412.3,330.3,707.3c-3.5,70.7-27.6,94.1-99,92.7c-318.3-4.2-636.5-2.8-954.8-3.5
		C-710.2,1012.3-745.6,1012.3-788,1012.3z M-790.1,740c278.7,0,551,0,824,0c-23.3-198.7-174-338.1-371.3-345.9
		C-576.6,384.2-746.3,510.8-790.1,740z"/>
	<path fill="#FFFFFF" d="M2807.7,1598.6c-115.3,0-218.5,0-328.9,0c0-482.4,0-965.4,0-1454.9c105.4,0,207.9,0,319.7,0
		c4.2,37.5,9.2,77.8,16.3,133.7c127.3-133,275.8-184.6,449.8-181.1c293.5,6.4,517.7,186.7,542.5,479.5
		c21.9,255.3,11.3,512.8,14.1,769.5c0.7,80.6,0,161.3,0,249.7c-113.2,0-217.8,0-332.4,0c0-133.7,0-262.4,0-391.8
		c0-165.5,5-331.7-2.8-497.2c-8.5-185.3-102.6-282.2-280.1-302.7c-174-20.5-325.3,68.6-372.7,229.2c-18.4,60.8-24,128-24.8,191.7
		c-2.8,211.5-0.7,422.9-0.7,633.7C2808.4,1503.1,2807.7,1547.7,2807.7,1598.6z"/>
</g>
</svg>
